# xmcd
# Track frame offsets: 
#        183
#        17608
#        29920
#        47100
#        64500
#        83345
#        92973
#        110170
#        121348
#        135888
# Disc length: 2293 seconds
# Revision: 2
# Processed by: cddbd v1.4b41PL1 Copyright (c) Steve Scherf et al.
# Submitted via: ExactAudioCopy v0.90a9
#
DISCID=7d08f30a
DTITLE=Rodolphe Burger - Cheval-mouvement
DYEAR=1900
DGENRE=
TTITLE0=The shape on the ground
TTITLE1=Et cetera
TTITLE2=Sing
TTITLE3=Cheval-mouvement
TTITLE4=Charade
TTITLE5=Passe - Donne
TTITLE6=The passenger
TTITLE7=Meow, meow
TTITLE8=bonus: Phobic Flights
TTITLE9=bonus: Songs (with Lyda Yang)
EXTD=
EXTT0=
EXTT1=
EXTT2=
EXTT3=
EXTT4=
EXTT5=
EXTT6=
EXTT7=
EXTT8=
EXTT9=
PLAYORDER=
